HIERARCHY
ROOT Hips
{
 OFFSET 0.000000 0.000000 0.000000
 CHANNELS 6 Xposition Yposition Zposition Yrotation Xrotation Zrotation
 JOINT Chest
 {
  OFFSET 0.000000 9.910571 -0.011835
  CHANNELS 3 Yrotation Xrotation Zrotation
  JOINT Chest2
  {
   OFFSET 0.000000 10.789473 0.021497
   CHANNELS 3 Yrotation Xrotation Zrotation
   JOINT Chest3
   {
    OFFSET 0.000000 9.748205 0.000000
    CHANNELS 3 Yrotation Xrotation Zrotation
    JOINT Chest4
    {
     OFFSET 0.000000 9.748205 0.000000
     CHANNELS 3 Yrotation Xrotation Zrotation
     JOINT Neck
     {
      OFFSET 0.000000 13.998479 0.000000
      CHANNELS 3 Yrotation Xrotation Zrotation
      JOINT Head
      {
       OFFSET 0.000000 9.082285 0.051121
       CHANNELS 3 Yrotation Xrotation Zrotation
       End Site
       {
        OFFSET 0.000000 17.246134 0.026702
       }
      }
     }
     JOINT RightCollar
     {
      OFFSET -3.284495 7.824262 0.000000
      CHANNELS 3 Yrotation Xrotation Zrotation
      JOINT RightShoulder
      {
       OFFSET -15.534540 0.000000 0.000000
       CHANNELS 3 Yrotation Xrotation Zrotation
       JOINT RightElbow
       {
        OFFSET 0.000000 -28.251216 0.000000
        CHANNELS 3 Yrotation Xrotation Zrotation
        JOINT RightWrist
        {
         OFFSET 0.000000 -23.418114 0.012537
         CHANNELS 3 Yrotation Xrotation Zrotation
         End Site
         {
          OFFSET 0.000000 -17.723959 0.000000
         }
        }
       }
      }
     }
     JOINT LeftCollar
     {
      OFFSET 3.284495 7.824262 0.000000
      CHANNELS 3 Yrotation Xrotation Zrotation
      JOINT LeftShoulder
      {
       OFFSET 15.534540 0.000000 0.000000
       CHANNELS 3 Yrotation Xrotation Zrotation
       JOINT LeftElbow
       {
        OFFSET 0.000000 -28.251216 0.000000
        CHANNELS 3 Yrotation Xrotation Zrotation
        JOINT LeftWrist
        {
         OFFSET 0.000000 -23.418114 0.012537
         CHANNELS 3 Yrotation Xrotation Zrotation
         End Site
         {
          OFFSET 0.000000 -17.723959 0.000000
         }
        }
       }
      }
     }
    }
   }
  }
 }
 JOINT RightHip
 {
  OFFSET -8.142657 0.057990 0.005917
  CHANNELS 3 Yrotation Xrotation Zrotation
  JOINT RightKnee
  {
   OFFSET 0.000000 -49.716894 0.008478
   CHANNELS 3 Yrotation Xrotation Zrotation
   JOINT RightAnkle
   {
    OFFSET 0.000000 -43.994153 0.004166
    CHANNELS 3 Yrotation Xrotation Zrotation
    JOINT RightToe
    {
     OFFSET 0.000000 -7.619154 17.822051
     CHANNELS 3 Yrotation Xrotation Zrotation
     End Site
     {
      OFFSET 0.000000 -1.595627 7.159905
     }
    }
   }
  }
 }
 JOINT LeftHip
 {
  OFFSET 8.142657 0.057990 0.005917
  CHANNELS 3 Yrotation Xrotation Zrotation
  JOINT LeftKnee
  {
   OFFSET 0.000000 -49.716894 0.008478
   CHANNELS 3 Yrotation Xrotation Zrotation
   JOINT LeftAnkle
   {
    OFFSET 0.000000 -43.994153 0.004166
    CHANNELS 3 Yrotation Xrotation Zrotation
    JOINT LeftToe
    {
     OFFSET 0.000000 -7.619154 17.822051
     CHANNELS 3 Yrotation Xrotation Zrotation
     End Site
     {
      OFFSET 0.000000 -1.595627 7.159905
     }
    }
   }
  }
 }
}
MOTION
Frames: 8
Frame Time: 0.008333
247.747828 57.462996 255.215591 -52.258290 -55.570849 0.734939 -3.902467 20.348327 -3.082492 -1.568578 9.015275 -1.570646 -1.568578 9.015275 -1.570646 -1.150662 6.765580 -1.152240 -3.491793 18.516213 -1.950435 -5.773516 -1.808972 -2.439093 0.087292 11.603147 14.086809 31.023502 -22.617548 -24.003844 15.360759 -29.848809 3.488284 23.674448 -12.490924 -20.157965 -3.205544 12.901917 -12.589519 -14.795897 -23.563280 21.497084 -9.035418 -41.718625 7.274227 -47.076307 -18.610697 5.007251 -16.228005 -19.788585 -5.476143 -10.705369 34.257555 -14.603053 4.983636 29.189692 6.032800 -0.572693 1.209149 -0.238934 18.673724 -28.200664 3.882373 89.915529 88.849246 85.581630 -29.545986 -6.664197 -21.428446 -0.144000 -0.170141 -0.060273
247.754630 57.409544 255.229601 -52.221373 -55.584377 0.803631 -3.958247 20.369627 -3.188326 -1.573384 9.018895 -1.573430 -1.573384 9.018895 -1.573430 -1.154206 6.768315 -1.154241 -3.525891 18.468124 -1.985032 -5.825022 -1.898914 -2.489953 0.092940 11.581535 14.090025 31.039446 -22.613875 -24.003838 15.418711 -29.825717 3.432372 23.578183 -12.575937 -20.180536 -3.189216 12.880237 -12.584419 -14.810206 -23.555563 21.501958 -9.060283 -41.732220 7.249598 -47.045844 -18.583795 5.025693 -16.212765 -19.795677 -5.581885 -10.705144 34.255874 -14.598519 4.912637 29.280938 5.964890 -0.501821 1.124734 -0.208528 18.694587 -28.175090 3.769967 90.661117 88.830191 86.310646 -29.553378 -6.659913 -21.422309 -0.138593 -0.165010 -0.057494
247.753311 57.397665 255.229410 -52.217125 -55.577005 0.800762 -3.966709 20.387243 -3.189741 -1.578979 9.027374 -1.576771 -1.578979 9.027374 -1.576771 -1.158317 6.774698 -1.156632 -3.556892 18.411277 -2.017635 -5.871521 -2.005090 -2.537873 0.104502 11.524204 14.091494 31.042832 -22.599510 -23.997481 15.451041 -29.812433 3.402867 23.507361 -12.654590 -20.214112 -3.172457 12.831043 -12.578361 -14.814112 -23.552108 21.506060 -9.049340 -41.727764 7.241380 -47.029064 -18.601289 5.028742 -16.210817 -19.802274 -5.579165 -10.713824 34.256120 -14.601851 4.921673 29.274394 5.965457 -0.506995 1.133814 -0.209250 18.690161 -28.187296 3.767592 91.016911 88.832129 86.663406 -29.551015 -6.663656 -21.423566 -0.137604 -0.162209 -0.056040
247.747014 57.401564 255.218308 -52.251434 -55.540991 0.766094 -3.936240 20.391041 -3.124792 -1.584003 9.037527 -1.577586 -1.584003 9.037527 -1.577586 -1.162033 6.782329 -1.157134 -3.589279 18.351545 -2.052469 -5.919830 -2.116681 -2.589332 0.115803 11.462432 14.084785 31.064946 -22.592994 -23.993661 15.446392 -29.792552 3.393035 23.445140 -12.728341 -20.244384 -3.161346 12.766122 -12.581308 -14.813409 -23.546463 21.507989 -9.070165 -41.738079 7.213197 -46.993938 -18.574436 5.055284 -16.213520 -19.822125 -5.504699 -10.715323 34.260277 -14.600327 4.967505 29.226183 6.004028 -0.560690 1.179939 -0.230503 18.676903 -28.245392 3.832505 91.506445 88.839855 87.156752 -29.550737 -6.674436 -21.431197 -0.135969 -0.160913 -0.055312
247.744382 57.409691 255.215242 -52.246351 -55.533453 0.748766 -3.950998 20.418068 -3.113995 -1.591016 9.047678 -1.579990 -1.591016 9.047678 -1.579990 -1.167213 6.789967 -1.158796 -3.619630 18.290985 -2.089396 -5.963690 -2.229900 -2.645267 0.139972 11.398306 14.075814 31.068051 -22.591782 -23.984417 15.440421 -29.779586 3.384970 23.380067 -12.796345 -20.263076 -3.135171 12.703628 -12.584606 -14.820495 -23.542726 21.516601 -9.053220 -41.735245 7.200424 -46.979287 -18.589139 5.049533 -16.219562 -19.830733 -5.483425 -10.720992 34.266865 -14.606868 4.960254 29.200333 5.991770 -0.563086 1.207116 -0.227648 18.662828 -28.254427 3.846065 91.392926 88.840138 87.044504 -29.548390 -6.674934 -21.436227 -0.137754 -0.162199 -0.056909
247.740617 57.418552 255.210758 -52.230662 -55.525552 0.724613 -3.963033 20.440954 -3.102431 -1.597172 9.055971 -1.582395 -1.597172 9.055971 -1.582395 -1.171758 6.796209 -1.160478 -3.650988 18.236822 -2.124092 -6.010092 -2.331173 -2.696960 0.158103 11.342465 14.073594 31.059462 -22.584119 -23.971584 15.436566 -29.772221 3.385367 23.313718 -12.861962 -20.281474 -3.112039 12.651181 -12.580838 -14.842195 -23.533722 21.527264 -9.047520 -41.742375 7.160224 -46.950091 -18.574256 5.050656 -16.229422 -19.831720 -5.463293 -10.723932 34.263906 -14.609202 4.965055 29.178118 5.992187 -0.565670 1.232902 -0.229498 18.644054 -28.263710 3.855372 91.213698 88.839739 86.870773 -29.545556 -6.675401 -21.447207 -0.139229 -0.163948 -0.056908
247.738223 57.425572 255.207529 -52.232801 -55.515524 0.721043 -3.968518 20.452283 -3.096221 -1.600762 9.061029 -1.584641 -1.600762 9.061029 -1.584641 -1.174395 6.800018 -1.162089 -3.685082 18.189687 -2.160809 -6.060809 -2.419442 -2.751676 0.174970 11.308256 14.074568 31.051324 -22.581518 -23.965153 15.421354 -29.769414 3.384746 23.247740 -12.921747 -20.287766 -3.098289 12.612130 -12.578076 -14.849529 -23.525016 21.531922 -9.012260 -41.741171 7.136273 -46.932912 -18.601493 5.023918 -16.229173 -19.843457 -5.450757 -10.733673 34.266645 -14.618297 4.978337 29.166106 5.997053 -0.570328 1.247181 -0.233210 18.639750 -28.274585 3.856547 91.112880 88.847201 86.774054 -29.538077 -6.670409 -21.452208 -0.143083 -0.168779 -0.059561
247.735226 57.433589 255.202703 -52.225507 -55.507256 0.705404 -3.968835 20.466283 -3.084002 -1.603435 9.067370 -1.585507 -1.603435 9.067370 -1.585507 -1.176363 6.804784 -1.162677 -3.721415 18.144010 -2.195541 -6.116287 -2.504926 -2.802032 0.198414 11.271581 14.081453 31.026840 -22.581261 -23.965528 15.400108 -29.766811 3.395642 23.186887 -12.981661 -20.293470 -3.090983 12.576181 -12.569916 -14.855742 -23.520861 21.534198 -9.022746 -41.749111 7.102853 -46.880433 -18.586332 5.022712 -16.231227 -19.846686 -5.429262 -10.743620 34.262432 -14.626117 4.960211 29.160805 5.978112 -0.560171 1.258650 -0.228468 18.619836 -28.285041 3.866051 90.953263 88.855948 86.614027 -29.531835 -6.663861 -21.458081 -0.146679 -0.173577 -0.062643
